<svg xmlns="http://www.w3.org/2000/svg" width="780" height="441" viewBox="0 0 780 441" fill="none"><rect width="780" height="440" transform="translate(0 0.5)" fill="#A1C2F8"></rect><path d="M559.453 206.764C559.815 211.295 560 215.876 560 220.5C560 296.561 510.048 360.955 441.16 382.667M328.728 61.8767C347.737 54.5291 368.398 50.5 390 50.5C464.177 50.5 527.257 98.0074 550.475 164.255L552.799 171.218M265.939 104.271C237.447 134.671 220 175.548 220 220.5C220 305.924 283.006 376.632 365.082 388.687" stroke="#040404" stroke-width="1.5"></path><circle cx="390.446" cy="220.5" r="103.945" fill="#205BC3"></circle><path d="M418.772 230.304L421.677 206.899H400.817V194.601C400.817 187.79 403.422 181.963 412.778 181.963L423.233 181.957V160.916C419.497 160.63 412.985 159.989 404.745 159.989C387.543 159.989 374.664 172.138 374.664 192.272V206.899H355.984V230.304H374.664V284.76C379.505 285.691 384.497 286.196 389.609 286.196C393.416 286.196 397.155 285.91 400.817 285.388V230.304H418.772Z" fill="white"></path><path fill-rule="evenodd" clip-rule="evenodd" d="M276.303 233.527C283.273 297.003 340.38 342.811 403.856 335.842C467.332 328.873 513.139 271.766 506.17 208.29C499.201 144.814 442.094 99.0058 378.618 105.975C315.142 112.944 269.334 170.051 276.303 233.527ZM305.443 230.33C310.645 277.711 353.273 311.905 400.655 306.702C448.036 301.5 482.23 258.873 477.028 211.491C471.825 164.109 429.198 129.916 381.816 135.118C334.434 140.32 300.241 182.948 305.443 230.33Z" fill="#C7DBF9"></path><path d="M403.938 336.588C340.05 343.602 282.572 297.497 275.558 233.609L277.049 233.445C283.973 296.51 340.71 342.02 403.774 335.096L403.938 336.588ZM506.916 208.208C513.93 272.096 467.825 329.573 403.938 336.588L403.774 335.096C466.838 328.172 512.349 271.436 505.425 208.372L506.916 208.208ZM378.536 105.229C442.424 98.2151 499.901 144.32 506.916 208.208L505.425 208.372C498.501 145.307 441.764 99.7966 378.7 106.721L378.536 105.229ZM275.558 233.609C268.544 169.721 314.648 112.244 378.536 105.229L378.7 106.721C315.636 113.644 270.125 170.381 277.049 233.445L275.558 233.609ZM400.736 307.448C352.943 312.695 309.945 278.205 304.698 230.411L306.189 230.248C311.346 277.218 353.603 311.114 400.573 305.957L400.736 307.448ZM477.773 211.409C483.02 259.203 448.53 302.201 400.736 307.448L400.573 305.957C447.543 300.8 481.439 258.543 476.282 211.573L477.773 211.409ZM381.734 134.372C429.528 129.125 472.526 163.616 477.773 211.409L476.282 211.573C471.125 164.603 428.868 130.707 381.898 135.863L381.734 134.372ZM304.698 230.411C299.45 182.618 333.941 139.62 381.734 134.372L381.898 135.863C334.928 141.02 301.032 183.278 306.189 230.248L304.698 230.411Z" fill="#040404"></path><path d="M477.111 300.202L496.325 272.072L513.955 284.113L494.741 312.243L477.111 300.202Z" fill="#0A2960" stroke="#040404" stroke-width="1.5" stroke-miterlimit="10" stroke-linecap="round" stroke-linejoin="round"></path><path d="M491.356 317.188L517.333 279.157L617.057 347.273C622.53 351.011 623.936 358.478 620.198 363.951L607.759 382.163C604.021 387.636 596.554 389.042 591.081 385.304L491.356 317.188Z" fill="#0C3F89" stroke="#040404" stroke-width="1.5" stroke-miterlimit="10" stroke-linecap="round" stroke-linejoin="round"></path><path d="M208.623 223.093H280.997V302.581L265.295 318.537H208.623V223.093Z" fill="white" stroke="#040404" stroke-width="1.5" stroke-miterlimit="10"></path><path d="M265.272 302.785H280.997L265.272 318.51V302.785Z" fill="white" stroke="#040404" stroke-width="1.5" stroke-miterlimit="10" stroke-linejoin="round"></path><path d="M216.851 240.74H254.446" stroke="#040404" stroke-width="1.5" stroke-miterlimit="10"></path><path d="M216.851 246.053H242.178" stroke="#040404" stroke-width="1.5" stroke-miterlimit="10"></path><path d="M216.851 254.686H272.77" stroke="#040404" stroke-width="1.5" stroke-miterlimit="10"></path><path d="M216.851 260.621H272.77" stroke="#040404" stroke-width="1.5" stroke-miterlimit="10"></path><path d="M216.851 266.557H272.77" stroke="#040404" stroke-width="1.5" stroke-miterlimit="10"></path><path d="M216.851 272.494H272.77" stroke="#040404" stroke-width="1.5" stroke-miterlimit="10"></path><path d="M216.851 278.43H272.77" stroke="#040404" stroke-width="1.5" stroke-miterlimit="10"></path><path d="M216.851 284.366H272.77" stroke="#040404" stroke-width="1.5" stroke-miterlimit="10"></path><path d="M216.851 290.302H272.77" stroke="#040404" stroke-width="1.5" stroke-miterlimit="10"></path><path d="M216.851 296.238H255.237" stroke="#040404" stroke-width="1.5" stroke-miterlimit="10"></path><path d="M465.278 206.766L485.119 189.034" stroke="#040404" stroke-width="1.5" stroke-miterlimit="10"></path><path d="M455.435 206.795H596.861L596.691 115.625" stroke="#040404" stroke-width="1.5" stroke-linecap="round" stroke-linejoin="round"></path><path d="M573.816 153.273L555.949 173.308L527.904 161.199L507.86 184.575L485.558 188.814" stroke="#040404" stroke-width="1.5" stroke-miterlimit="10"></path><path d="M575.169 152.139L595.221 128.762" stroke="#040404" stroke-width="1.5" stroke-miterlimit="10"></path><path d="M511.933 183.061C511.933 184.83 510.394 186.259 508.497 186.259C506.601 186.259 505.062 184.83 505.062 183.061C505.062 181.292 506.601 179.864 508.497 179.864C510.394 179.864 511.933 181.292 511.933 183.061Z" fill="white" stroke="#040404" stroke-width="1.5" stroke-miterlimit="10"></path><path d="M488.794 188.992C488.794 190.76 487.255 192.189 485.358 192.189C483.462 192.189 481.923 190.76 481.923 188.992C481.923 187.223 483.462 185.794 485.358 185.794C487.255 185.794 488.794 187.223 488.794 188.992Z" fill="white" stroke="#040404" stroke-width="1.5" stroke-miterlimit="10"></path><path d="M468.75 206.795C468.75 208.564 467.211 209.992 465.315 209.992C463.419 209.992 461.879 208.564 461.879 206.795C461.879 205.026 463.419 203.597 465.315 203.597C467.211 203.597 468.75 205.026 468.75 206.795Z" fill="white" stroke="#040404" stroke-width="1.5" stroke-miterlimit="10"></path><path d="M531.721 161.624C531.721 163.393 530.182 164.822 528.286 164.822C526.389 164.822 524.85 163.393 524.85 161.624C524.85 159.855 526.389 158.427 528.286 158.427C530.182 158.427 531.721 159.855 531.721 161.624Z" fill="white" stroke="#040404" stroke-width="1.5" stroke-miterlimit="10"></path><path d="M559.347 173.121C559.347 174.89 557.808 176.318 555.911 176.318C554.015 176.318 552.476 174.89 552.476 173.121C552.476 171.352 554.015 169.923 555.911 169.923C557.808 169.923 559.347 171.352 559.347 173.121Z" fill="white" stroke="#040404" stroke-width="1.5" stroke-miterlimit="10"></path><path d="M577.489 153.229C577.489 154.997 575.95 156.426 574.054 156.426C572.157 156.426 570.618 154.997 570.618 153.229C570.618 151.46 572.157 150.031 574.054 150.031C575.95 150.031 577.489 151.46 577.489 153.229Z" fill="white" stroke="#040404" stroke-width="1.5" stroke-miterlimit="10"></path><path d="M599.608 127.6C599.608 129.369 598.068 130.797 596.172 130.797C594.276 130.797 592.736 129.369 592.736 127.6C592.736 125.831 594.276 124.402 596.172 124.402C598.068 124.402 599.608 125.831 599.608 127.6Z" fill="white" stroke="#040404" stroke-width="1.5" stroke-miterlimit="10"></path><path d="M301.375 91.1489L260.62 85.9366C262.9 67.7497 277.077 53.2699 295.118 50.5177L301.375 91.1489Z" fill="#205BC3" stroke="#040404" stroke-width="1.5" stroke-miterlimit="10"></path><path d="M265.11 96.4107C265.11 104.802 267.638 112.62 271.951 119.113C279.309 130.212 291.902 137.514 306.213 137.514C328.916 137.514 347.316 119.113 347.316 96.4107C347.316 73.708 328.916 55.3077 306.213 55.3077C304.09 55.3077 301.99 55.4762 299.945 55.7907L306.213 96.4219L265.459 91.2096C265.223 92.9171 265.11 94.647 265.11 96.4107Z" fill="white" stroke="#040404" stroke-width="1.5" stroke-miterlimit="10"></path><path d="M377.488 390.792H365.034V351.135H377.488V390.792Z" fill="#0C3F89" stroke="#040404" stroke-width="1.5" stroke-miterlimit="10"></path><path d="M398.819 390.8H386.365V316.46H398.819V390.8Z" fill="#205BC3" stroke="#040404" stroke-width="1.5" stroke-miterlimit="10"></path><path d="M420.075 390.792H407.621V325.848H420.075V390.792Z" fill="white" stroke="#040404" stroke-width="1.5" stroke-linecap="round" stroke-linejoin="round"></path><path d="M441.043 390.792H428.589V307.108H441.043V390.792Z" fill="#A1C2F8" stroke="#040404" stroke-width="1.5" stroke-miterlimit="10"></path></svg>